# xmcd
#
# Track frame offsets:
#	150
#	17237
#	34679
#	54192
#	73369
#	92442
#	112184
#	130696
#	148068
#	168041
#
# Disc length: 2539 seconds
#
# Revision: 0
# Processed by: cddbd v1.5.2PL0 Copyright (c) Steve Scherf et al.
# Submitted via: EasyCDDAExtractor 15.3.0.1
#
DISCID=8409e90a
DTITLE=Gisselle and Milly Quezada - Frente A Frente
DYEAR=2015
DGENRE=Latin
TTITLE0=Gisselle - Fuego En La Cintura
TTITLE1=Milly Quezada - En Tus Manos
TTITLE2=Gisselle - Quiero Estar Contigo
TTITLE3=Milly Quezada - Quizas
TTITLE4=Gisselle - Huele A Peligro
TTITLE5=Milly Quezada - Burbujas De Amor
TTITLE6=Gisselle - Dame Un Beso
TTITLE7=Milly Quezada - Y Ya Pa' Que
TTITLE8=Gisselle - El Negro
TTITLE9=Milly Quezada - Entre Tu Cuerpo Y El Mio
EXTD=
EXTT0=
EXTT1=
EXTT2=
EXTT3=
EXTT4=
EXTT5=
EXTT6=
EXTT7=
EXTT8=
EXTT9=
PLAYORDER=
